<svg width="35" height="48" viewBox="0 0 35 48" fill="none" xmlns="http://www.w3.org/2000/svg">
<g clip-path="url(#clip0_1_12230)">
<path d="M16.4328 0C22.5618 0 28.6912 0 34.8202 0C34.8171 0.103617 34.8117 0.206789 34.8117 0.310406C34.8117 10.343 34.8117 20.3752 34.8109 30.4078C34.8109 31.4524 34.7361 32.4913 34.5574 33.5221C33.9406 37.0802 32.3801 40.1656 29.8568 42.7391C26.9062 45.7484 23.3174 47.4735 19.1176 47.9053C17.3232 48.0898 15.5372 48.0111 13.7806 47.61C8.48547 46.4004 4.54447 43.387 1.97228 38.6051C0.961014 36.7258 0.363771 34.7055 0.132523 32.5815C0.0804921 32.1048 0.0435814 31.6263 0 31.1487C0 26.3792 0 21.6101 0 16.8406C0.0142307 16.7241 0.0271272 16.6072 0.042692 16.4907C0.166321 15.5465 0.216573 14.5851 0.42692 13.6605C1.48043 9.02312 4.01393 5.38942 7.9834 2.7772C10.1967 1.32078 12.6364 0.450489 15.269 0.131634C15.6564 0.0844945 16.0451 0.0435814 16.4328 0ZM29.98 30.7004C30.0574 23.6549 24.3344 18.1939 17.686 18.0765C10.4871 17.9493 5.08746 23.6224 4.83264 30.1045C4.52624 37.8931 10.7468 43.0873 16.9118 43.3034C24.1877 43.5587 30.1014 37.6703 29.98 30.7009V30.7004Z" fill="#304D30"/>
<path d="M16.4328 0C22.5618 0 28.6912 0 34.8202 0C34.8171 0.103617 34.8117 0.206789 34.8117 0.310406C34.8117 10.343 34.8117 20.3752 34.8109 30.4078C34.8109 31.4524 34.7361 32.4913 34.5574 33.5221C33.9406 37.0802 32.3801 40.1656 29.8568 42.7391C26.9062 45.7484 23.3174 47.4735 19.1176 47.9053C17.3232 48.0898 15.5372 48.0111 13.7806 47.61C8.48547 46.4004 4.54447 43.387 1.97228 38.6051C0.961014 36.7258 0.363771 34.7055 0.132523 32.5815C0.0804921 32.1048 0.0435814 31.6263 0 31.1487C0 26.3792 0 21.6101 0 16.8406C0.0142307 16.7241 0.0271272 16.6072 0.042692 16.4907C0.166321 15.5465 0.216573 14.5851 0.42692 13.6605C1.48043 9.02312 4.01393 5.38942 7.9834 2.7772C10.1967 1.32078 12.6364 0.450489 15.269 0.131634C15.6564 0.0844945 16.0451 0.0435814 16.4328 0ZM29.98 30.7004C30.0574 23.6549 24.3344 18.1939 17.686 18.0765C10.4871 17.9493 5.08746 23.6224 4.83264 30.1045C4.52624 37.8931 10.7468 43.0873 16.9118 43.3034C24.1877 43.5587 30.1014 37.6703 29.98 30.7009V30.7004Z" fill="black" fill-opacity="0.2"/>
<path d="M16.4328 0C22.5618 0 28.6912 0 34.8202 0C34.8171 0.103617 34.8117 0.206789 34.8117 0.310406C34.8117 10.343 34.8117 20.3752 34.8109 30.4078C34.8109 31.4524 34.7361 32.4913 34.5574 33.5221C33.9406 37.0802 32.3801 40.1656 29.8568 42.7391C26.9062 45.7484 23.3174 47.4735 19.1176 47.9053C17.3232 48.0898 15.5372 48.0111 13.7806 47.61C8.48547 46.4004 4.54447 43.387 1.97228 38.6051C0.961014 36.7258 0.363771 34.7055 0.132523 32.5815C0.0804921 32.1048 0.0435814 31.6263 0 31.1487C0 26.3792 0 21.6101 0 16.8406C0.0142307 16.7241 0.0271272 16.6072 0.042692 16.4907C0.166321 15.5465 0.216573 14.5851 0.42692 13.6605C1.48043 9.02312 4.01393 5.38942 7.9834 2.7772C10.1967 1.32078 12.6364 0.450489 15.269 0.131634C15.6564 0.0844945 16.0451 0.0435814 16.4328 0ZM29.98 30.7004C30.0574 23.6549 24.3344 18.1939 17.686 18.0765C10.4871 17.9493 5.08746 23.6224 4.83264 30.1045C4.52624 37.8931 10.7468 43.0873 16.9118 43.3034C24.1877 43.5587 30.1014 37.6703 29.98 30.7009V30.7004Z" fill="black" fill-opacity="0.2"/>
<path d="M16.4328 0C22.5618 0 28.6912 0 34.8202 0C34.8171 0.103617 34.8117 0.206789 34.8117 0.310406C34.8117 10.343 34.8117 20.3752 34.8109 30.4078C34.8109 31.4524 34.7361 32.4913 34.5574 33.5221C33.9406 37.0802 32.3801 40.1656 29.8568 42.7391C26.9062 45.7484 23.3174 47.4735 19.1176 47.9053C17.3232 48.0898 15.5372 48.0111 13.7806 47.61C8.48547 46.4004 4.54447 43.387 1.97228 38.6051C0.961014 36.7258 0.363771 34.7055 0.132523 32.5815C0.0804921 32.1048 0.0435814 31.6263 0 31.1487C0 26.3792 0 21.6101 0 16.8406C0.0142307 16.7241 0.0271272 16.6072 0.042692 16.4907C0.166321 15.5465 0.216573 14.5851 0.42692 13.6605C1.48043 9.02312 4.01393 5.38942 7.9834 2.7772C10.1967 1.32078 12.6364 0.450489 15.269 0.131634C15.6564 0.0844945 16.0451 0.0435814 16.4328 0ZM29.98 30.7004C30.0574 23.6549 24.3344 18.1939 17.686 18.0765C10.4871 17.9493 5.08746 23.6224 4.83264 30.1045C4.52624 37.8931 10.7468 43.0873 16.9118 43.3034C24.1877 43.5587 30.1014 37.6703 29.98 30.7009V30.7004Z" fill="black" fill-opacity="0.2"/>
<path d="M16.4328 0C22.5618 0 28.6912 0 34.8202 0C34.8171 0.103617 34.8117 0.206789 34.8117 0.310406C34.8117 10.343 34.8117 20.3752 34.8109 30.4078C34.8109 31.4524 34.7361 32.4913 34.5574 33.5221C33.9406 37.0802 32.3801 40.1656 29.8568 42.7391C26.9062 45.7484 23.3174 47.4735 19.1176 47.9053C17.3232 48.0898 15.5372 48.0111 13.7806 47.61C8.48547 46.4004 4.54447 43.387 1.97228 38.6051C0.961014 36.7258 0.363771 34.7055 0.132523 32.5815C0.0804921 32.1048 0.0435814 31.6263 0 31.1487C0 26.3792 0 21.6101 0 16.8406C0.0142307 16.7241 0.0271272 16.6072 0.042692 16.4907C0.166321 15.5465 0.216573 14.5851 0.42692 13.6605C1.48043 9.02312 4.01393 5.38942 7.9834 2.7772C10.1967 1.32078 12.6364 0.450489 15.269 0.131634C15.6564 0.0844945 16.0451 0.0435814 16.4328 0ZM29.98 30.7004C30.0574 23.6549 24.3344 18.1939 17.686 18.0765C10.4871 17.9493 5.08746 23.6224 4.83264 30.1045C4.52624 37.8931 10.7468 43.0873 16.9118 43.3034C24.1877 43.5587 30.1014 37.6703 29.98 30.7009V30.7004Z" fill="black" fill-opacity="0.2"/>
<path d="M29.98 30.7007C30.1014 37.6701 24.1872 43.5585 16.9118 43.3033C10.7464 43.0871 4.52625 37.8934 4.83265 30.1043C5.08747 23.6223 10.4871 17.9491 17.686 18.0763C24.3344 18.1937 30.0574 23.6547 29.98 30.7002V30.7007ZM17.425 20.6454C16.5738 20.616 15.74 20.7361 14.9249 20.9469C13.6388 21.2795 12.4585 21.847 11.3988 22.655C9.88231 23.8113 8.75631 25.2677 8.05679 27.0434C7.47911 28.5096 7.27277 30.0314 7.41196 31.6039C7.55071 33.171 8.03989 34.6208 8.86749 35.9509C10.0575 37.8636 11.7012 39.2533 13.8055 40.0591C14.4686 40.313 15.1801 40.4407 15.8708 40.6208C16.0357 40.6639 16.1158 40.5928 16.1176 40.4127C16.1198 40.1921 16.1496 39.9715 16.1585 39.7509C16.2047 38.6223 16.2465 37.4936 16.2928 36.3654C16.319 35.7237 16.3608 35.0828 16.3742 34.4411C16.3786 34.2334 16.3675 33.9969 16.2745 33.8199C15.5764 32.4933 14.5197 31.5345 13.1776 30.883C12.1485 30.3836 11.0568 30.1199 9.92056 30.0314C9.79915 30.0221 9.72978 29.9771 9.73778 29.8384C9.74712 29.6761 9.74579 29.5124 9.73867 29.3497C9.73245 29.2091 9.7827 29.1451 9.92945 29.15C10.5058 29.1678 11.0844 29.1513 11.658 29.1998C13.3733 29.3457 14.9369 29.9144 16.3244 30.9466C16.3657 30.9773 16.4244 30.984 16.4751 31.0022C16.4929 30.9488 16.524 30.8959 16.5263 30.8417C16.54 30.4948 16.5454 30.1475 16.5578 29.8006C16.5752 29.3208 16.5943 28.8414 16.6161 28.362C16.6694 27.183 16.7273 26.0041 16.7788 24.8252C16.8002 24.3382 16.8118 23.8508 16.8242 23.3639C16.8273 23.2443 16.8758 23.1887 16.9985 23.1905C17.272 23.194 17.546 23.194 17.8195 23.1905C17.9418 23.1887 17.9907 23.2434 17.9947 23.3634C18.0174 24.0123 18.0423 24.6611 18.0698 25.3099C18.0974 25.9659 18.1325 26.6218 18.1583 27.2778C18.2046 28.4509 18.2459 29.624 18.2922 30.7972C18.2949 30.8661 18.3255 30.9342 18.3429 31.0026C18.4056 30.9764 18.4763 30.9613 18.5292 30.9222C19.2665 30.3792 20.0657 29.9531 20.9338 29.6632C22.0651 29.2852 23.228 29.1184 24.422 29.1491C25.1047 29.1669 25.1011 29.1522 25.082 29.8388C25.078 29.9758 25.0197 30.0158 24.8992 30.0336C24.4327 30.1026 23.9627 30.1581 23.5019 30.2551C21.6951 30.6344 20.1795 31.5056 19.0606 32.9949C18.7071 33.465 18.3736 33.931 18.4509 34.6177C18.5666 35.6494 18.5581 36.6953 18.6008 37.7355C18.6359 38.5911 18.6822 39.4468 18.6982 40.3028C18.7058 40.7039 18.8072 40.6564 19.0802 40.6092C20.1417 40.4264 21.1561 40.0907 22.1016 39.5726C24.3193 38.3568 25.9007 36.5766 26.8088 34.2077C27.4959 32.4155 27.6288 30.5713 27.2531 28.6999C26.8888 26.8869 26.0755 25.2819 24.8147 23.9269C22.8215 21.7847 20.3561 20.6805 17.4246 20.6481L17.425 20.6454Z" fill="#EEF0E5"/>
<path d="M17.425 20.6457C20.357 20.6782 22.822 21.7824 24.8151 23.9246C26.0759 25.2796 26.8893 26.8845 27.2535 28.6976C27.6293 30.5694 27.4963 32.4131 26.8092 34.2053C25.9011 36.5738 24.3197 38.3544 22.102 39.5703C21.1565 40.0884 20.1426 40.4241 19.0806 40.6069C18.8076 40.654 18.7062 40.7016 18.6986 40.3005C18.6826 39.4444 18.6368 38.5888 18.6012 37.7332C18.5586 36.693 18.567 35.6475 18.4514 34.6153C18.3744 33.9287 18.708 33.4627 19.0611 32.9926C20.1804 31.5033 21.6955 30.6321 23.5024 30.2527C23.9635 30.1558 24.4331 30.1002 24.8996 30.0313C25.0202 30.0135 25.0789 29.9735 25.0824 29.8365C25.1015 29.1499 25.1051 29.1641 24.4225 29.1468C23.2284 29.1161 22.0655 29.2828 20.9342 29.6608C20.0666 29.9508 19.267 30.3768 18.5296 30.9198C18.4767 30.9589 18.406 30.9741 18.3433 31.0003C18.3255 30.9318 18.2953 30.8638 18.2926 30.7948C18.2464 29.6217 18.205 28.4486 18.1588 27.2754C18.133 26.6195 18.0978 25.9635 18.0703 25.3076C18.0427 24.6588 18.0178 24.0099 17.9951 23.3611C17.9911 23.241 17.9422 23.1868 17.8199 23.1881C17.5464 23.1917 17.2725 23.1917 16.999 23.1881C16.8762 23.1868 16.8277 23.2419 16.8246 23.3616C16.8122 23.849 16.8006 24.3359 16.7793 24.8229C16.7277 26.0018 16.6703 27.1807 16.6165 28.3596C16.5947 28.839 16.5756 29.3189 16.5583 29.7983C16.5458 30.1451 16.5405 30.4924 16.5267 30.8393C16.5245 30.8936 16.4933 30.9465 16.4755 30.9999C16.4248 30.9821 16.3661 30.975 16.3248 30.9443C14.9373 29.9121 13.3737 29.3429 11.6585 29.1975C11.0852 29.1485 10.5062 29.165 9.92988 29.1476C9.78313 29.1432 9.73243 29.2068 9.7391 29.3473C9.74622 29.5101 9.74755 29.6733 9.73821 29.8361C9.73021 29.9744 9.79958 30.0193 9.92099 30.0291C11.0577 30.118 12.149 30.3813 13.178 30.8807C14.5202 31.5322 15.5772 32.491 16.275 33.8175C16.3679 33.9941 16.379 34.2307 16.3746 34.4388C16.3612 35.0805 16.3194 35.7218 16.2932 36.363C16.247 37.4917 16.2047 38.6204 16.1589 39.7486C16.15 39.9696 16.1202 40.1897 16.118 40.4103C16.1162 40.5904 16.0362 40.6616 15.8712 40.6184C15.1806 40.4383 14.469 40.3107 13.806 40.0568C11.7016 39.251 10.0575 37.8613 8.86792 35.9486C8.04032 34.6184 7.55114 33.1687 7.41239 31.6015C7.2732 30.0295 7.47954 28.5073 8.05722 27.0411C8.75674 25.2658 9.88274 23.8089 11.3992 22.6527C12.4589 21.8447 13.6396 21.2777 14.9253 20.9446C15.7404 20.7338 16.5743 20.6137 17.4254 20.6431L17.425 20.6457ZM15.8116 28.7599C15.7902 27.4115 15.2428 26.3366 14.1266 25.566C13.6748 25.2542 13.1651 25.083 12.631 24.9816C12.4732 24.9518 12.3149 24.942 12.3304 25.1924C12.3469 25.4552 12.3184 25.7225 12.3509 25.9827C12.5683 27.7433 13.8464 28.9942 15.5167 29.2913C15.7547 29.3335 15.8085 29.2837 15.8116 29.0485C15.8129 28.9524 15.8116 28.8564 15.8116 28.7599ZM19.009 28.7634C19.009 28.8448 19.0077 28.9262 19.009 29.0076C19.0144 29.2993 19.0677 29.3398 19.3506 29.282C20.4948 29.048 21.398 28.4664 21.9864 27.4395C22.3813 26.7498 22.5663 26.0071 22.4889 25.2111C22.4653 24.9661 22.4093 24.9394 22.1638 24.9838C20.296 25.3232 18.9988 26.8734 19.0086 28.7634H19.009ZM10.8491 35.7782C11.1924 35.7329 11.5411 35.7124 11.8781 35.6373C13.3243 35.3144 14.4877 34.1915 14.7865 32.5563C14.8092 32.4336 14.7496 32.4029 14.6447 32.3882C13.9945 32.2997 13.3541 32.3673 12.7511 32.6057C11.5669 33.0731 10.7655 33.9225 10.4266 35.1601C10.2607 35.7653 10.1771 35.7267 10.8495 35.7778L10.8491 35.7782ZM23.9715 35.7467C24.0382 35.7467 24.105 35.7493 24.1712 35.7458C24.2375 35.7427 24.3037 35.7324 24.37 35.7275C24.4852 35.7191 24.5145 35.6684 24.4923 35.5506C24.3269 34.6816 23.9435 33.9323 23.2765 33.343C22.3897 32.5594 21.35 32.2606 20.18 32.3887C20.0763 32.4002 20.0007 32.4305 20.035 32.5523C20.1168 32.8427 20.1746 33.1442 20.2934 33.4191C20.9342 34.9088 22.3106 35.772 23.9715 35.7467ZM10.7775 32.9028C11.4784 32.9139 11.8079 32.4585 11.807 31.9644C11.8061 31.4228 11.4401 31.0096 10.7868 31.0105C10.1936 31.0114 9.7858 31.3961 9.78446 31.956C9.78357 32.5252 10.178 32.9019 10.7771 32.9028H10.7775ZM24.0222 32.9005C24.591 32.9125 25.0219 32.5483 25.0362 32.0436C25.0531 31.4326 24.6768 31.0265 24.0774 31.0119C23.4197 30.9959 23.0492 31.3641 23.0136 31.9213C22.9834 32.3927 23.3045 32.9125 24.0222 32.9005ZM15.1005 23.2406C14.4241 23.1837 14.0808 23.6546 14.0594 24.1571C14.0368 24.6881 14.4815 25.1012 15.0649 25.1088C15.6648 25.1164 16.0815 24.7401 16.1015 24.1936C16.118 23.7404 15.7538 23.1717 15.1005 23.241V23.2406ZM19.7286 23.2406C19.0575 23.1703 18.7062 23.7462 18.7191 24.1847C18.7351 24.733 19.1496 25.1137 19.7473 25.1088C20.3329 25.1044 20.7768 24.6992 20.7612 24.1656C20.7465 23.6626 20.4005 23.1855 19.729 23.2406H19.7286ZM10.802 28.3458C11.4463 28.3418 11.815 27.9927 11.8128 27.3884C11.8106 26.849 11.3805 26.4687 10.7797 26.4754C10.1936 26.4816 9.77824 26.881 9.78446 27.432C9.79113 27.9865 10.1954 28.3498 10.802 28.3463V28.3458ZM24.0111 28.3458C24.6306 28.3498 25.0344 27.9838 25.0362 27.4173C25.0379 26.8707 24.6141 26.4754 24.0267 26.475C23.4374 26.475 23.0105 26.8538 23.0079 27.3799C23.0047 27.9901 23.3698 28.3414 24.0107 28.3454L24.0111 28.3458ZM14.8506 34.98C14.2342 34.9813 13.8326 35.3576 13.838 35.9294C13.8429 36.4787 14.2613 36.866 14.8524 36.8682C15.4514 36.8704 15.8583 36.4804 15.857 35.905C15.8561 35.3366 15.4665 34.9787 14.8506 34.98ZM19.9812 34.98C19.3626 34.9769 18.9668 35.3331 18.9646 35.8948C18.9623 36.4751 19.3581 36.8629 19.9589 36.8682C20.5571 36.8731 20.9862 36.4755 20.9835 35.9183C20.9813 35.3535 20.5855 34.9831 19.9812 34.98Z" fill="#304D30"/>
<path d="M17.425 20.6457C20.357 20.6782 22.822 21.7824 24.8151 23.9246C26.0759 25.2796 26.8893 26.8845 27.2535 28.6976C27.6293 30.5694 27.4963 32.4131 26.8092 34.2053C25.9011 36.5738 24.3197 38.3544 22.102 39.5703C21.1565 40.0884 20.1426 40.4241 19.0806 40.6069C18.8076 40.654 18.7062 40.7016 18.6986 40.3005C18.6826 39.4444 18.6368 38.5888 18.6012 37.7332C18.5586 36.693 18.567 35.6475 18.4514 34.6153C18.3744 33.9287 18.708 33.4627 19.0611 32.9926C20.1804 31.5033 21.6955 30.6321 23.5024 30.2527C23.9635 30.1558 24.4331 30.1002 24.8996 30.0313C25.0202 30.0135 25.0789 29.9735 25.0824 29.8365C25.1015 29.1499 25.1051 29.1641 24.4225 29.1468C23.2284 29.1161 22.0655 29.2828 20.9342 29.6608C20.0666 29.9508 19.267 30.3768 18.5296 30.9198C18.4767 30.9589 18.406 30.9741 18.3433 31.0003C18.3255 30.9318 18.2953 30.8638 18.2926 30.7948C18.2464 29.6217 18.205 28.4486 18.1588 27.2754C18.133 26.6195 18.0978 25.9635 18.0703 25.3076C18.0427 24.6588 18.0178 24.0099 17.9951 23.3611C17.9911 23.241 17.9422 23.1868 17.8199 23.1881C17.5464 23.1917 17.2725 23.1917 16.999 23.1881C16.8762 23.1868 16.8277 23.2419 16.8246 23.3616C16.8122 23.849 16.8006 24.3359 16.7793 24.8229C16.7277 26.0018 16.6703 27.1807 16.6165 28.3596C16.5947 28.839 16.5756 29.3189 16.5583 29.7983C16.5458 30.1451 16.5405 30.4924 16.5267 30.8393C16.5245 30.8936 16.4933 30.9465 16.4755 30.9999C16.4248 30.9821 16.3661 30.975 16.3248 30.9443C14.9373 29.9121 13.3737 29.3429 11.6585 29.1975C11.0852 29.1485 10.5062 29.165 9.92988 29.1476C9.78313 29.1432 9.73243 29.2068 9.7391 29.3473C9.74622 29.5101 9.74755 29.6733 9.73821 29.8361C9.73021 29.9744 9.79958 30.0193 9.92099 30.0291C11.0577 30.118 12.149 30.3813 13.178 30.8807C14.5202 31.5322 15.5772 32.491 16.275 33.8175C16.3679 33.9941 16.379 34.2307 16.3746 34.4388C16.3612 35.0805 16.3194 35.7218 16.2932 36.363C16.247 37.4917 16.2047 38.6204 16.1589 39.7486C16.15 39.9696 16.1202 40.1897 16.118 40.4103C16.1162 40.5904 16.0362 40.6616 15.8712 40.6184C15.1806 40.4383 14.469 40.3107 13.806 40.0568C11.7016 39.251 10.0575 37.8613 8.86792 35.9486C8.04032 34.6184 7.55114 33.1687 7.41239 31.6015C7.2732 30.0295 7.47954 28.5073 8.05722 27.0411C8.75674 25.2658 9.88274 23.8089 11.3992 22.6527C12.4589 21.8447 13.6396 21.2777 14.9253 20.9446C15.7404 20.7338 16.5743 20.6137 17.4254 20.6431L17.425 20.6457ZM15.8116 28.7599C15.7902 27.4115 15.2428 26.3366 14.1266 25.566C13.6748 25.2542 13.1651 25.083 12.631 24.9816C12.4732 24.9518 12.3149 24.942 12.3304 25.1924C12.3469 25.4552 12.3184 25.7225 12.3509 25.9827C12.5683 27.7433 13.8464 28.9942 15.5167 29.2913C15.7547 29.3335 15.8085 29.2837 15.8116 29.0485C15.8129 28.9524 15.8116 28.8564 15.8116 28.7599ZM19.009 28.7634C19.009 28.8448 19.0077 28.9262 19.009 29.0076C19.0144 29.2993 19.0677 29.3398 19.3506 29.282C20.4948 29.048 21.398 28.4664 21.9864 27.4395C22.3813 26.7498 22.5663 26.0071 22.4889 25.2111C22.4653 24.9661 22.4093 24.9394 22.1638 24.9838C20.296 25.3232 18.9988 26.8734 19.0086 28.7634H19.009ZM10.8491 35.7782C11.1924 35.7329 11.5411 35.7124 11.8781 35.6373C13.3243 35.3144 14.4877 34.1915 14.7865 32.5563C14.8092 32.4336 14.7496 32.4029 14.6447 32.3882C13.9945 32.2997 13.3541 32.3673 12.7511 32.6057C11.5669 33.0731 10.7655 33.9225 10.4266 35.1601C10.2607 35.7653 10.1771 35.7267 10.8495 35.7778L10.8491 35.7782ZM23.9715 35.7467C24.0382 35.7467 24.105 35.7493 24.1712 35.7458C24.2375 35.7427 24.3037 35.7324 24.37 35.7275C24.4852 35.7191 24.5145 35.6684 24.4923 35.5506C24.3269 34.6816 23.9435 33.9323 23.2765 33.343C22.3897 32.5594 21.35 32.2606 20.18 32.3887C20.0763 32.4002 20.0007 32.4305 20.035 32.5523C20.1168 32.8427 20.1746 33.1442 20.2934 33.4191C20.9342 34.9088 22.3106 35.772 23.9715 35.7467ZM10.7775 32.9028C11.4784 32.9139 11.8079 32.4585 11.807 31.9644C11.8061 31.4228 11.4401 31.0096 10.7868 31.0105C10.1936 31.0114 9.7858 31.3961 9.78446 31.956C9.78357 32.5252 10.178 32.9019 10.7771 32.9028H10.7775ZM24.0222 32.9005C24.591 32.9125 25.0219 32.5483 25.0362 32.0436C25.0531 31.4326 24.6768 31.0265 24.0774 31.0119C23.4197 30.9959 23.0492 31.3641 23.0136 31.9213C22.9834 32.3927 23.3045 32.9125 24.0222 32.9005ZM15.1005 23.2406C14.4241 23.1837 14.0808 23.6546 14.0594 24.1571C14.0368 24.6881 14.4815 25.1012 15.0649 25.1088C15.6648 25.1164 16.0815 24.7401 16.1015 24.1936C16.118 23.7404 15.7538 23.1717 15.1005 23.241V23.2406ZM19.7286 23.2406C19.0575 23.1703 18.7062 23.7462 18.7191 24.1847C18.7351 24.733 19.1496 25.1137 19.7473 25.1088C20.3329 25.1044 20.7768 24.6992 20.7612 24.1656C20.7465 23.6626 20.4005 23.1855 19.729 23.2406H19.7286ZM10.802 28.3458C11.4463 28.3418 11.815 27.9927 11.8128 27.3884C11.8106 26.849 11.3805 26.4687 10.7797 26.4754C10.1936 26.4816 9.77824 26.881 9.78446 27.432C9.79113 27.9865 10.1954 28.3498 10.802 28.3463V28.3458ZM24.0111 28.3458C24.6306 28.3498 25.0344 27.9838 25.0362 27.4173C25.0379 26.8707 24.6141 26.4754 24.0267 26.475C23.4374 26.475 23.0105 26.8538 23.0079 27.3799C23.0047 27.9901 23.3698 28.3414 24.0107 28.3454L24.0111 28.3458ZM14.8506 34.98C14.2342 34.9813 13.8326 35.3576 13.838 35.9294C13.8429 36.4787 14.2613 36.866 14.8524 36.8682C15.4514 36.8704 15.8583 36.4804 15.857 35.905C15.8561 35.3366 15.4665 34.9787 14.8506 34.98ZM19.9812 34.98C19.3626 34.9769 18.9668 35.3331 18.9646 35.8948C18.9623 36.4751 19.3581 36.8629 19.9589 36.8682C20.5571 36.8731 20.9862 36.4755 20.9835 35.9183C20.9813 35.3535 20.5855 34.9831 19.9812 34.98Z" fill="black" fill-opacity="0.2"/>
<path d="M17.425 20.6457C20.357 20.6782 22.822 21.7824 24.8151 23.9246C26.0759 25.2796 26.8893 26.8845 27.2535 28.6976C27.6293 30.5694 27.4963 32.4131 26.8092 34.2053C25.9011 36.5738 24.3197 38.3544 22.102 39.5703C21.1565 40.0884 20.1426 40.4241 19.0806 40.6069C18.8076 40.654 18.7062 40.7016 18.6986 40.3005C18.6826 39.4444 18.6368 38.5888 18.6012 37.7332C18.5586 36.693 18.567 35.6475 18.4514 34.6153C18.3744 33.9287 18.708 33.4627 19.0611 32.9926C20.1804 31.5033 21.6955 30.6321 23.5024 30.2527C23.9635 30.1558 24.4331 30.1002 24.8996 30.0313C25.0202 30.0135 25.0789 29.9735 25.0824 29.8365C25.1015 29.1499 25.1051 29.1641 24.4225 29.1468C23.2284 29.1161 22.0655 29.2828 20.9342 29.6608C20.0666 29.9508 19.267 30.3768 18.5296 30.9198C18.4767 30.9589 18.406 30.9741 18.3433 31.0003C18.3255 30.9318 18.2953 30.8638 18.2926 30.7948C18.2464 29.6217 18.205 28.4486 18.1588 27.2754C18.133 26.6195 18.0978 25.9635 18.0703 25.3076C18.0427 24.6588 18.0178 24.0099 17.9951 23.3611C17.9911 23.241 17.9422 23.1868 17.8199 23.1881C17.5464 23.1917 17.2725 23.1917 16.999 23.1881C16.8762 23.1868 16.8277 23.2419 16.8246 23.3616C16.8122 23.849 16.8006 24.3359 16.7793 24.8229C16.7277 26.0018 16.6703 27.1807 16.6165 28.3596C16.5947 28.839 16.5756 29.3189 16.5583 29.7983C16.5458 30.1451 16.5405 30.4924 16.5267 30.8393C16.5245 30.8936 16.4933 30.9465 16.4755 30.9999C16.4248 30.9821 16.3661 30.975 16.3248 30.9443C14.9373 29.9121 13.3737 29.3429 11.6585 29.1975C11.0852 29.1485 10.5062 29.165 9.92988 29.1476C9.78313 29.1432 9.73243 29.2068 9.7391 29.3473C9.74622 29.5101 9.74755 29.6733 9.73821 29.8361C9.73021 29.9744 9.79958 30.0193 9.92099 30.0291C11.0577 30.118 12.149 30.3813 13.178 30.8807C14.5202 31.5322 15.5772 32.491 16.275 33.8175C16.3679 33.9941 16.379 34.2307 16.3746 34.4388C16.3612 35.0805 16.3194 35.7218 16.2932 36.363C16.247 37.4917 16.2047 38.6204 16.1589 39.7486C16.15 39.9696 16.1202 40.1897 16.118 40.4103C16.1162 40.5904 16.0362 40.6616 15.8712 40.6184C15.1806 40.4383 14.469 40.3107 13.806 40.0568C11.7016 39.251 10.0575 37.8613 8.86792 35.9486C8.04032 34.6184 7.55114 33.1687 7.41239 31.6015C7.2732 30.0295 7.47954 28.5073 8.05722 27.0411C8.75674 25.2658 9.88274 23.8089 11.3992 22.6527C12.4589 21.8447 13.6396 21.2777 14.9253 20.9446C15.7404 20.7338 16.5743 20.6137 17.4254 20.6431L17.425 20.6457ZM15.8116 28.7599C15.7902 27.4115 15.2428 26.3366 14.1266 25.566C13.6748 25.2542 13.1651 25.083 12.631 24.9816C12.4732 24.9518 12.3149 24.942 12.3304 25.1924C12.3469 25.4552 12.3184 25.7225 12.3509 25.9827C12.5683 27.7433 13.8464 28.9942 15.5167 29.2913C15.7547 29.3335 15.8085 29.2837 15.8116 29.0485C15.8129 28.9524 15.8116 28.8564 15.8116 28.7599ZM19.009 28.7634C19.009 28.8448 19.0077 28.9262 19.009 29.0076C19.0144 29.2993 19.0677 29.3398 19.3506 29.282C20.4948 29.048 21.398 28.4664 21.9864 27.4395C22.3813 26.7498 22.5663 26.0071 22.4889 25.2111C22.4653 24.9661 22.4093 24.9394 22.1638 24.9838C20.296 25.3232 18.9988 26.8734 19.0086 28.7634H19.009ZM10.8491 35.7782C11.1924 35.7329 11.5411 35.7124 11.8781 35.6373C13.3243 35.3144 14.4877 34.1915 14.7865 32.5563C14.8092 32.4336 14.7496 32.4029 14.6447 32.3882C13.9945 32.2997 13.3541 32.3673 12.7511 32.6057C11.5669 33.0731 10.7655 33.9225 10.4266 35.1601C10.2607 35.7653 10.1771 35.7267 10.8495 35.7778L10.8491 35.7782ZM23.9715 35.7467C24.0382 35.7467 24.105 35.7493 24.1712 35.7458C24.2375 35.7427 24.3037 35.7324 24.37 35.7275C24.4852 35.7191 24.5145 35.6684 24.4923 35.5506C24.3269 34.6816 23.9435 33.9323 23.2765 33.343C22.3897 32.5594 21.35 32.2606 20.18 32.3887C20.0763 32.4002 20.0007 32.4305 20.035 32.5523C20.1168 32.8427 20.1746 33.1442 20.2934 33.4191C20.9342 34.9088 22.3106 35.772 23.9715 35.7467ZM10.7775 32.9028C11.4784 32.9139 11.8079 32.4585 11.807 31.9644C11.8061 31.4228 11.4401 31.0096 10.7868 31.0105C10.1936 31.0114 9.7858 31.3961 9.78446 31.956C9.78357 32.5252 10.178 32.9019 10.7771 32.9028H10.7775ZM24.0222 32.9005C24.591 32.9125 25.0219 32.5483 25.0362 32.0436C25.0531 31.4326 24.6768 31.0265 24.0774 31.0119C23.4197 30.9959 23.0492 31.3641 23.0136 31.9213C22.9834 32.3927 23.3045 32.9125 24.0222 32.9005ZM15.1005 23.2406C14.4241 23.1837 14.0808 23.6546 14.0594 24.1571C14.0368 24.6881 14.4815 25.1012 15.0649 25.1088C15.6648 25.1164 16.0815 24.7401 16.1015 24.1936C16.118 23.7404 15.7538 23.1717 15.1005 23.241V23.2406ZM19.7286 23.2406C19.0575 23.1703 18.7062 23.7462 18.7191 24.1847C18.7351 24.733 19.1496 25.1137 19.7473 25.1088C20.3329 25.1044 20.7768 24.6992 20.7612 24.1656C20.7465 23.6626 20.4005 23.1855 19.729 23.2406H19.7286ZM10.802 28.3458C11.4463 28.3418 11.815 27.9927 11.8128 27.3884C11.8106 26.849 11.3805 26.4687 10.7797 26.4754C10.1936 26.4816 9.77824 26.881 9.78446 27.432C9.79113 27.9865 10.1954 28.3498 10.802 28.3463V28.3458ZM24.0111 28.3458C24.6306 28.3498 25.0344 27.9838 25.0362 27.4173C25.0379 26.8707 24.6141 26.4754 24.0267 26.475C23.4374 26.475 23.0105 26.8538 23.0079 27.3799C23.0047 27.9901 23.3698 28.3414 24.0107 28.3454L24.0111 28.3458ZM14.8506 34.98C14.2342 34.9813 13.8326 35.3576 13.838 35.9294C13.8429 36.4787 14.2613 36.866 14.8524 36.8682C15.4514 36.8704 15.8583 36.4804 15.857 35.905C15.8561 35.3366 15.4665 34.9787 14.8506 34.98ZM19.9812 34.98C19.3626 34.9769 18.9668 35.3331 18.9646 35.8948C18.9623 36.4751 19.3581 36.8629 19.9589 36.8682C20.5571 36.8731 20.9862 36.4755 20.9835 35.9183C20.9813 35.3535 20.5855 34.9831 19.9812 34.98Z" fill="black" fill-opacity="0.2"/>
<path d="M17.425 20.6457C20.357 20.6782 22.822 21.7824 24.8151 23.9246C26.0759 25.2796 26.8893 26.8845 27.2535 28.6976C27.6293 30.5694 27.4963 32.4131 26.8092 34.2053C25.9011 36.5738 24.3197 38.3544 22.102 39.5703C21.1565 40.0884 20.1426 40.4241 19.0806 40.6069C18.8076 40.654 18.7062 40.7016 18.6986 40.3005C18.6826 39.4444 18.6368 38.5888 18.6012 37.7332C18.5586 36.693 18.567 35.6475 18.4514 34.6153C18.3744 33.9287 18.708 33.4627 19.0611 32.9926C20.1804 31.5033 21.6955 30.6321 23.5024 30.2527C23.9635 30.1558 24.4331 30.1002 24.8996 30.0313C25.0202 30.0135 25.0789 29.9735 25.0824 29.8365C25.1015 29.1499 25.1051 29.1641 24.4225 29.1468C23.2284 29.1161 22.0655 29.2828 20.9342 29.6608C20.0666 29.9508 19.267 30.3768 18.5296 30.9198C18.4767 30.9589 18.406 30.9741 18.3433 31.0003C18.3255 30.9318 18.2953 30.8638 18.2926 30.7948C18.2464 29.6217 18.205 28.4486 18.1588 27.2754C18.133 26.6195 18.0978 25.9635 18.0703 25.3076C18.0427 24.6588 18.0178 24.0099 17.9951 23.3611C17.9911 23.241 17.9422 23.1868 17.8199 23.1881C17.5464 23.1917 17.2725 23.1917 16.999 23.1881C16.8762 23.1868 16.8277 23.2419 16.8246 23.3616C16.8122 23.849 16.8006 24.3359 16.7793 24.8229C16.7277 26.0018 16.6703 27.1807 16.6165 28.3596C16.5947 28.839 16.5756 29.3189 16.5583 29.7983C16.5458 30.1451 16.5405 30.4924 16.5267 30.8393C16.5245 30.8936 16.4933 30.9465 16.4755 30.9999C16.4248 30.9821 16.3661 30.975 16.3248 30.9443C14.9373 29.9121 13.3737 29.3429 11.6585 29.1975C11.0852 29.1485 10.5062 29.165 9.92988 29.1476C9.78313 29.1432 9.73243 29.2068 9.7391 29.3473C9.74622 29.5101 9.74755 29.6733 9.73821 29.8361C9.73021 29.9744 9.79958 30.0193 9.92099 30.0291C11.0577 30.118 12.149 30.3813 13.178 30.8807C14.5202 31.5322 15.5772 32.491 16.275 33.8175C16.3679 33.9941 16.379 34.2307 16.3746 34.4388C16.3612 35.0805 16.3194 35.7218 16.2932 36.363C16.247 37.4917 16.2047 38.6204 16.1589 39.7486C16.15 39.9696 16.1202 40.1897 16.118 40.4103C16.1162 40.5904 16.0362 40.6616 15.8712 40.6184C15.1806 40.4383 14.469 40.3107 13.806 40.0568C11.7016 39.251 10.0575 37.8613 8.86792 35.9486C8.04032 34.6184 7.55114 33.1687 7.41239 31.6015C7.2732 30.0295 7.47954 28.5073 8.05722 27.0411C8.75674 25.2658 9.88274 23.8089 11.3992 22.6527C12.4589 21.8447 13.6396 21.2777 14.9253 20.9446C15.7404 20.7338 16.5743 20.6137 17.4254 20.6431L17.425 20.6457ZM15.8116 28.7599C15.7902 27.4115 15.2428 26.3366 14.1266 25.566C13.6748 25.2542 13.1651 25.083 12.631 24.9816C12.4732 24.9518 12.3149 24.942 12.3304 25.1924C12.3469 25.4552 12.3184 25.7225 12.3509 25.9827C12.5683 27.7433 13.8464 28.9942 15.5167 29.2913C15.7547 29.3335 15.8085 29.2837 15.8116 29.0485C15.8129 28.9524 15.8116 28.8564 15.8116 28.7599ZM19.009 28.7634C19.009 28.8448 19.0077 28.9262 19.009 29.0076C19.0144 29.2993 19.0677 29.3398 19.3506 29.282C20.4948 29.048 21.398 28.4664 21.9864 27.4395C22.3813 26.7498 22.5663 26.0071 22.4889 25.2111C22.4653 24.9661 22.4093 24.9394 22.1638 24.9838C20.296 25.3232 18.9988 26.8734 19.0086 28.7634H19.009ZM10.8491 35.7782C11.1924 35.7329 11.5411 35.7124 11.8781 35.6373C13.3243 35.3144 14.4877 34.1915 14.7865 32.5563C14.8092 32.4336 14.7496 32.4029 14.6447 32.3882C13.9945 32.2997 13.3541 32.3673 12.7511 32.6057C11.5669 33.0731 10.7655 33.9225 10.4266 35.1601C10.2607 35.7653 10.1771 35.7267 10.8495 35.7778L10.8491 35.7782ZM23.9715 35.7467C24.0382 35.7467 24.105 35.7493 24.1712 35.7458C24.2375 35.7427 24.3037 35.7324 24.37 35.7275C24.4852 35.7191 24.5145 35.6684 24.4923 35.5506C24.3269 34.6816 23.9435 33.9323 23.2765 33.343C22.3897 32.5594 21.35 32.2606 20.18 32.3887C20.0763 32.4002 20.0007 32.4305 20.035 32.5523C20.1168 32.8427 20.1746 33.1442 20.2934 33.4191C20.9342 34.9088 22.3106 35.772 23.9715 35.7467ZM10.7775 32.9028C11.4784 32.9139 11.8079 32.4585 11.807 31.9644C11.8061 31.4228 11.4401 31.0096 10.7868 31.0105C10.1936 31.0114 9.7858 31.3961 9.78446 31.956C9.78357 32.5252 10.178 32.9019 10.7771 32.9028H10.7775ZM24.0222 32.9005C24.591 32.9125 25.0219 32.5483 25.0362 32.0436C25.0531 31.4326 24.6768 31.0265 24.0774 31.0119C23.4197 30.9959 23.0492 31.3641 23.0136 31.9213C22.9834 32.3927 23.3045 32.9125 24.0222 32.9005ZM15.1005 23.2406C14.4241 23.1837 14.0808 23.6546 14.0594 24.1571C14.0368 24.6881 14.4815 25.1012 15.0649 25.1088C15.6648 25.1164 16.0815 24.7401 16.1015 24.1936C16.118 23.7404 15.7538 23.1717 15.1005 23.241V23.2406ZM19.7286 23.2406C19.0575 23.1703 18.7062 23.7462 18.7191 24.1847C18.7351 24.733 19.1496 25.1137 19.7473 25.1088C20.3329 25.1044 20.7768 24.6992 20.7612 24.1656C20.7465 23.6626 20.4005 23.1855 19.729 23.2406H19.7286ZM10.802 28.3458C11.4463 28.3418 11.815 27.9927 11.8128 27.3884C11.8106 26.849 11.3805 26.4687 10.7797 26.4754C10.1936 26.4816 9.77824 26.881 9.78446 27.432C9.79113 27.9865 10.1954 28.3498 10.802 28.3463V28.3458ZM24.0111 28.3458C24.6306 28.3498 25.0344 27.9838 25.0362 27.4173C25.0379 26.8707 24.6141 26.4754 24.0267 26.475C23.4374 26.475 23.0105 26.8538 23.0079 27.3799C23.0047 27.9901 23.3698 28.3414 24.0107 28.3454L24.0111 28.3458ZM14.8506 34.98C14.2342 34.9813 13.8326 35.3576 13.838 35.9294C13.8429 36.4787 14.2613 36.866 14.8524 36.8682C15.4514 36.8704 15.8583 36.4804 15.857 35.905C15.8561 35.3366 15.4665 34.9787 14.8506 34.98ZM19.9812 34.98C19.3626 34.9769 18.9668 35.3331 18.9646 35.8948C18.9623 36.4751 19.3581 36.8629 19.9589 36.8682C20.5571 36.8731 20.9862 36.4755 20.9835 35.9183C20.9813 35.3535 20.5855 34.9831 19.9812 34.98Z" fill="black" fill-opacity="0.2"/>
<path d="M17.425 20.6457C20.357 20.6782 22.822 21.7824 24.8151 23.9246C26.0759 25.2796 26.8893 26.8845 27.2535 28.6976C27.6293 30.5694 27.4963 32.4131 26.8092 34.2053C25.9011 36.5738 24.3197 38.3544 22.102 39.5703C21.1565 40.0884 20.1426 40.4241 19.0806 40.6069C18.8076 40.654 18.7062 40.7016 18.6986 40.3005C18.6826 39.4444 18.6368 38.5888 18.6012 37.7332C18.5586 36.693 18.567 35.6475 18.4514 34.6153C18.3744 33.9287 18.708 33.4627 19.0611 32.9926C20.1804 31.5033 21.6955 30.6321 23.5024 30.2527C23.9635 30.1558 24.4331 30.1002 24.8996 30.0313C25.0202 30.0135 25.0789 29.9735 25.0824 29.8365C25.1015 29.1499 25.1051 29.1641 24.4225 29.1468C23.2284 29.1161 22.0655 29.2828 20.9342 29.6608C20.0666 29.9508 19.267 30.3768 18.5296 30.9198C18.4767 30.9589 18.406 30.9741 18.3433 31.0003C18.3255 30.9318 18.2953 30.8638 18.2926 30.7948C18.2464 29.6217 18.205 28.4486 18.1588 27.2754C18.133 26.6195 18.0978 25.9635 18.0703 25.3076C18.0427 24.6588 18.0178 24.0099 17.9951 23.3611C17.9911 23.241 17.9422 23.1868 17.8199 23.1881C17.5464 23.1917 17.2725 23.1917 16.999 23.1881C16.8762 23.1868 16.8277 23.2419 16.8246 23.3616C16.8122 23.849 16.8006 24.3359 16.7793 24.8229C16.7277 26.0018 16.6703 27.1807 16.6165 28.3596C16.5947 28.839 16.5756 29.3189 16.5583 29.7983C16.5458 30.1451 16.5405 30.4924 16.5267 30.8393C16.5245 30.8936 16.4933 30.9465 16.4755 30.9999C16.4248 30.9821 16.3661 30.975 16.3248 30.9443C14.9373 29.9121 13.3737 29.3429 11.6585 29.1975C11.0852 29.1485 10.5062 29.165 9.92988 29.1476C9.78313 29.1432 9.73243 29.2068 9.7391 29.3473C9.74622 29.5101 9.74755 29.6733 9.73821 29.8361C9.73021 29.9744 9.79958 30.0193 9.92099 30.0291C11.0577 30.118 12.149 30.3813 13.178 30.8807C14.5202 31.5322 15.5772 32.491 16.275 33.8175C16.3679 33.9941 16.379 34.2307 16.3746 34.4388C16.3612 35.0805 16.3194 35.7218 16.2932 36.363C16.247 37.4917 16.2047 38.6204 16.1589 39.7486C16.15 39.9696 16.1202 40.1897 16.118 40.4103C16.1162 40.5904 16.0362 40.6616 15.8712 40.6184C15.1806 40.4383 14.469 40.3107 13.806 40.0568C11.7016 39.251 10.0575 37.8613 8.86792 35.9486C8.04032 34.6184 7.55114 33.1687 7.41239 31.6015C7.2732 30.0295 7.47954 28.5073 8.05722 27.0411C8.75674 25.2658 9.88274 23.8089 11.3992 22.6527C12.4589 21.8447 13.6396 21.2777 14.9253 20.9446C15.7404 20.7338 16.5743 20.6137 17.4254 20.6431L17.425 20.6457ZM15.8116 28.7599C15.7902 27.4115 15.2428 26.3366 14.1266 25.566C13.6748 25.2542 13.1651 25.083 12.631 24.9816C12.4732 24.9518 12.3149 24.942 12.3304 25.1924C12.3469 25.4552 12.3184 25.7225 12.3509 25.9827C12.5683 27.7433 13.8464 28.9942 15.5167 29.2913C15.7547 29.3335 15.8085 29.2837 15.8116 29.0485C15.8129 28.9524 15.8116 28.8564 15.8116 28.7599ZM19.009 28.7634C19.009 28.8448 19.0077 28.9262 19.009 29.0076C19.0144 29.2993 19.0677 29.3398 19.3506 29.282C20.4948 29.048 21.398 28.4664 21.9864 27.4395C22.3813 26.7498 22.5663 26.0071 22.4889 25.2111C22.4653 24.9661 22.4093 24.9394 22.1638 24.9838C20.296 25.3232 18.9988 26.8734 19.0086 28.7634H19.009ZM10.8491 35.7782C11.1924 35.7329 11.5411 35.7124 11.8781 35.6373C13.3243 35.3144 14.4877 34.1915 14.7865 32.5563C14.8092 32.4336 14.7496 32.4029 14.6447 32.3882C13.9945 32.2997 13.3541 32.3673 12.7511 32.6057C11.5669 33.0731 10.7655 33.9225 10.4266 35.1601C10.2607 35.7653 10.1771 35.7267 10.8495 35.7778L10.8491 35.7782ZM23.9715 35.7467C24.0382 35.7467 24.105 35.7493 24.1712 35.7458C24.2375 35.7427 24.3037 35.7324 24.37 35.7275C24.4852 35.7191 24.5145 35.6684 24.4923 35.5506C24.3269 34.6816 23.9435 33.9323 23.2765 33.343C22.3897 32.5594 21.35 32.2606 20.18 32.3887C20.0763 32.4002 20.0007 32.4305 20.035 32.5523C20.1168 32.8427 20.1746 33.1442 20.2934 33.4191C20.9342 34.9088 22.3106 35.772 23.9715 35.7467ZM10.7775 32.9028C11.4784 32.9139 11.8079 32.4585 11.807 31.9644C11.8061 31.4228 11.4401 31.0096 10.7868 31.0105C10.1936 31.0114 9.7858 31.3961 9.78446 31.956C9.78357 32.5252 10.178 32.9019 10.7771 32.9028H10.7775ZM24.0222 32.9005C24.591 32.9125 25.0219 32.5483 25.0362 32.0436C25.0531 31.4326 24.6768 31.0265 24.0774 31.0119C23.4197 30.9959 23.0492 31.3641 23.0136 31.9213C22.9834 32.3927 23.3045 32.9125 24.0222 32.9005ZM15.1005 23.2406C14.4241 23.1837 14.0808 23.6546 14.0594 24.1571C14.0368 24.6881 14.4815 25.1012 15.0649 25.1088C15.6648 25.1164 16.0815 24.7401 16.1015 24.1936C16.118 23.7404 15.7538 23.1717 15.1005 23.241V23.2406ZM19.7286 23.2406C19.0575 23.1703 18.7062 23.7462 18.7191 24.1847C18.7351 24.733 19.1496 25.1137 19.7473 25.1088C20.3329 25.1044 20.7768 24.6992 20.7612 24.1656C20.7465 23.6626 20.4005 23.1855 19.729 23.2406H19.7286ZM10.802 28.3458C11.4463 28.3418 11.815 27.9927 11.8128 27.3884C11.8106 26.849 11.3805 26.4687 10.7797 26.4754C10.1936 26.4816 9.77824 26.881 9.78446 27.432C9.79113 27.9865 10.1954 28.3498 10.802 28.3463V28.3458ZM24.0111 28.3458C24.6306 28.3498 25.0344 27.9838 25.0362 27.4173C25.0379 26.8707 24.6141 26.4754 24.0267 26.475C23.4374 26.475 23.0105 26.8538 23.0079 27.3799C23.0047 27.9901 23.3698 28.3414 24.0107 28.3454L24.0111 28.3458ZM14.8506 34.98C14.2342 34.9813 13.8326 35.3576 13.838 35.9294C13.8429 36.4787 14.2613 36.866 14.8524 36.8682C15.4514 36.8704 15.8583 36.4804 15.857 35.905C15.8561 35.3366 15.4665 34.9787 14.8506 34.98ZM19.9812 34.98C19.3626 34.9769 18.9668 35.3331 18.9646 35.8948C18.9623 36.4751 19.3581 36.8629 19.9589 36.8682C20.5571 36.8731 20.9862 36.4755 20.9835 35.9183C20.9813 35.3535 20.5855 34.9831 19.9812 34.98Z" fill="black" fill-opacity="0.2"/>
<path d="M15.8112 28.7602C15.8112 28.8562 15.812 28.9523 15.8112 29.0488C15.808 29.284 15.7542 29.3338 15.5163 29.2916C13.8455 28.9945 12.5679 27.7436 12.3504 25.983C12.3184 25.7228 12.3469 25.4555 12.33 25.1927C12.314 24.9419 12.4723 24.9521 12.6306 24.9819C13.1647 25.0829 13.6748 25.2541 14.1262 25.5663C15.2424 26.3369 15.7898 27.4118 15.8112 28.7602Z" fill="#EEF0E5"/>
<path d="M19.0091 28.7622C18.9993 26.8722 20.2965 25.3215 22.1643 24.9826C22.4097 24.9381 22.4658 24.9644 22.4893 25.2099C22.5667 26.0063 22.3817 26.7486 21.9868 27.4383C21.3985 28.4651 20.4957 29.0468 19.351 29.2807C19.0682 29.3385 19.0148 29.2985 19.0095 29.0063C19.0082 28.925 19.0095 28.8436 19.0095 28.7622H19.0091Z" fill="#EEF0E5"/>
<path d="M10.8491 35.7782C10.1763 35.727 10.2603 35.7657 10.4262 35.1605C10.7651 33.9228 11.5664 33.0734 12.7507 32.6061C13.3537 32.3681 13.9941 32.3005 14.6443 32.3886C14.7497 32.4028 14.8088 32.4335 14.7861 32.5567C14.4868 34.1919 13.3239 35.3143 11.8777 35.6376C11.5411 35.7128 11.192 35.7332 10.8487 35.7786L10.8491 35.7782Z" fill="#EEF0E5"/>
<path d="M23.9715 35.746C22.3101 35.7713 20.9342 34.9077 20.2933 33.4184C20.175 33.1431 20.1168 32.842 20.035 32.5517C20.0007 32.4298 20.0763 32.3996 20.1799 32.388C21.35 32.2599 22.3897 32.5588 23.2764 33.3423C23.9435 33.9316 24.3264 34.6809 24.4923 35.5499C24.5145 35.6677 24.4852 35.7184 24.37 35.7269C24.3037 35.7318 24.2379 35.742 24.1712 35.7451C24.1049 35.7482 24.0382 35.746 23.9715 35.746Z" fill="#EEF0E5"/>
<path d="M10.7771 32.902C10.1781 32.9011 9.78315 32.5249 9.78449 31.9552C9.78538 31.3953 10.1932 31.0107 10.7869 31.0098C11.4406 31.0089 11.8061 31.422 11.807 31.9637C11.8079 32.4577 11.4784 32.9131 10.7775 32.902H10.7771Z" fill="#EEF0E5"/>
<path d="M24.0223 32.9009C23.3045 32.9129 22.9834 32.393 23.0137 31.9216C23.0492 31.364 23.4197 30.9962 24.0774 31.0122C24.6773 31.0269 25.0535 31.4334 25.0362 32.0439C25.022 32.5487 24.591 32.9129 24.0223 32.9009Z" fill="#EEF0E5"/>
<path d="M15.1001 23.2402C15.7533 23.1708 16.1175 23.7396 16.1011 24.1927C16.0815 24.7393 15.6644 25.1155 15.0645 25.1079C14.481 25.1008 14.0363 24.6872 14.059 24.1563C14.0803 23.6537 14.4232 23.1828 15.1001 23.2397V23.2402Z" fill="#EEF0E5"/>
<path d="M19.7286 23.2403C20.4001 23.1852 20.7456 23.6623 20.7608 24.1653C20.7768 24.6989 20.3325 25.1041 19.7468 25.1085C19.1491 25.1134 18.7347 24.7327 18.7187 24.1844C18.7058 23.7459 19.0575 23.1696 19.7282 23.2403H19.7286Z" fill="#EEF0E5"/>
<path d="M10.8015 28.3456C10.1949 28.3491 9.79069 27.9863 9.78401 27.4313C9.77734 26.8803 10.1927 26.4814 10.7793 26.4747C11.3801 26.468 11.8101 26.8482 11.8123 27.3877C11.8146 27.992 11.4459 28.3416 10.8015 28.3451V28.3456Z" fill="#EEF0E5"/>
<path d="M24.0107 28.3451C23.3694 28.3411 23.0043 27.9897 23.0078 27.3796C23.0105 26.8531 23.4374 26.4742 24.0267 26.4746C24.6141 26.4746 25.0375 26.8704 25.0362 27.4169C25.0344 27.9831 24.6306 28.3491 24.0111 28.3455L24.0107 28.3451Z" fill="#EEF0E5"/>
<path d="M14.8501 34.9785C15.466 34.9772 15.8556 35.3352 15.8565 35.9035C15.8574 36.479 15.4509 36.869 14.8519 36.8668C14.2609 36.8645 13.8429 36.4776 13.8375 35.928C13.8322 35.3556 14.2338 34.9794 14.8501 34.9785Z" fill="#EEF0E5"/>
<path d="M19.9807 34.9785C20.5851 34.9817 20.9804 35.3521 20.9831 35.9169C20.9853 36.4741 20.5562 36.8721 19.9585 36.8668C19.3577 36.8619 18.9619 36.4741 18.9641 35.8933C18.9663 35.3312 19.3621 34.975 19.9807 34.9785Z" fill="#EEF0E5"/>
</g>
<defs>
<clipPath id="clip0_1_12230">
<rect width="34.8202" height="48" fill="white"/>
</clipPath>
</defs>
</svg>
